<svg id="Schwangere" xmlns="http://www.w3.org/2000/svg" viewBox="0 0 512 512"><title>Bauch-2</title><path id="Frau" d="M310,273s27.65-17.29,25-27c-3.53-12.95-2.8-18.83-16.92-28.25s-50.61-33-53-40S258,140.07,258,140.07,269.82,146,280.41,146,290,123,290,123l2-5-1-14.42h8.24L288.65,82.39l-1.18-17.66H301.6s5.89-45.9-61.2-47.08-69.44,53-69.44,53,5.89,57.67-7.06,63.56S141.53,133,141.53,133s10.59,17.66,21.19,17.66,31.78-5.89,31.78-5.89L112.1,258.94s-15.3,10.59-8.24,22.36,70.62,81.21,70.62,81.21l1.18,28.25-14.12,20L176.84,439s5.89,28.25,16.48,37.66S214.5,512,214.5,512h90.63l13.8-43.36ZM194.49,427.26V400.18l11.77,27.07Zm20-113c-7.06,28.25-22.36,62.38-22.36,62.38s-22.36-56.5-28.25-67.09-24.72-27.07-24.72-27.07l50.61-49.43S221.56,286,214.5,314.26Z" fill="#bcf781"/><path id="bauchLinie" d="M319,469s67.34-33.51,65-85.29c-2.15-47.21-62.74-102-74-110.71l-32,5,27,196Z" fill="#bcf781"/></svg>