<svg id="Schwangere" xmlns="http://www.w3.org/2000/svg" viewBox="0 0 512 512"><title>Bauch</title><path id="Frau" d="M323,273.06s27.66-17.26,25-27c-3.52-13-2.78-18.84-16.9-28.27s-50.58-33-52.93-40.07-7-37.67-7-37.67,11.76,5.9,22.36,5.91S303.13,123,303.13,123l2-5-1-14.42h8.24l-10.57-21.2-1.16-17.66h14.12s5.93-45.9-61.16-47.14-69.49,52.9-69.49,52.9S190,128.23,177,134.11s-22.36-1.2-22.36-1.2,10.58,17.66,21.17,17.67,31.78-5.86,31.78-5.86l-82.5,114.09s-15.31,10.58-8.26,22.36,70.54,81.28,70.54,81.28l1.15,28.25-14.14,20L189.67,439s5.86,28.25,16.44,37.68S227.27,512,227.27,512l90.63.08,13.84-43.34ZM207.34,427.21l0-27.07,11.74,27.08Zm20.11-113C220.37,342.48,205,376.6,205,376.6s-22.31-56.52-28.19-67.12-24.69-27.09-24.69-27.09L202.81,233S234.54,286,227.45,314.24Z" fill="#bcf781"/><path id="bauchLinie" d="M331.81,469.07S368.31,435.79,366,384c-2.1-47.22-31.77-102.26-43-110.94l-32,5,26.82,196Z" fill="#bcf781"/></svg>