<svg id="Ebene_1" data-name="Ebene 1" xmlns="http://www.w3.org/2000/svg" viewBox="0 0 512 512"><title>Fruit-26</title><polygon points="224.07 106.94 217 87.67 236.33 87.67 263.73 78.17 263.73 92.56 280.33 87 288.33 88.33 300.33 98.33 293.67 111 224.07 106.94" fill="#39b54a"/><path d="M433,255.71a177.67,177.67,0,0,1-355.35,0C77.67,157.59,157.87,105,256,105S433,157.59,433,255.71Z" fill="#93278f"/><path d="M433,255.71a177.67,177.67,0,0,1-355.35,0c0-14.39,4.57-32.91,4.57-32.91s38.4,11.38,61.1,12.53,113-8,150-8c84.85,0,139.27,16.28,139.27,16.28S433,242.44,433,255.71Z" fill="#fff"/></svg>