<svg id="Ebene_1" data-name="Ebene 1" xmlns="http://www.w3.org/2000/svg" viewBox="0 0 512 512"><title>Fruit-39</title><path d="M509.5,268c0,140-113.5,225-253.5,225S2.5,408.05,2.5,268,116,45,256,45,509.5,128,509.5,268Z" fill="#39b54a"/><path d="M259.31,493S471,445,471,282,247,45,247,45s175,79,175,234S259.31,493,259.31,493Z" fill="#006837"/><path d="M247,45S32,117,32,280,258,493,258,493,81,432,81,277,247,45,247,45Z" fill="#006837"/><path d="M247,45s49,72,49,235-38,213-38,213,89-61,89-216S247,45,247,45Z" fill="#006837"/><path d="M247,45s-99,75-99,238S258,493,258,493s-59-58-59-213S247,45,247,45Z" fill="#006837"/><path d="M297.62,60.18c-11.34,0-24.58-7.91-39.39-23.54-6-6.36-16.27-6.89-21.84-6.64a49.41,49.41,0,0,0-15.58,3.17c25.4,3.09,30.74,5.64,32,9.54a4.92,4.92,0,0,1-1.25,5.1L248,47c-.93.88-3.11-1.25-3,0,.12,1.42.06-.14.33,0C245,46.85,241.18,44.68,219,42c-2.44-.29-9.87-1.18-10.84-6.73-.43-2.46.41-6.08,6.87-9.33,6.18-3.11,15.28-5.06,23.73-5,7.79,0,18.64,1.69,26,9.5,9.39,9.92,22.92,21.56,34,20.69,4.35-.34,8-2.67,11-7.14,2.17-3.16,1.19-4.31.61-5-4.14-4.87-19.22-6.3-22.19-4.91a1.94,1.94,0,0,0,.47-.36l-6.36-6.36c5.16-5.17,24.93-2.81,33,3.94,5.61,4.67,6.3,11.32,1.85,17.79-4.64,6.75-10.61,10.46-17.74,11C298.86,60.16,298.24,60.18,297.62,60.18Z" fill="#006837"/></svg>