<svg id="Ebene_1" data-name="Ebene 1" xmlns="http://www.w3.org/2000/svg" viewBox="0 0 512 512"><title>Fruit-38</title><circle cx="256" cy="256" r="249" fill="none"/><path d="M304.41,242s-46.26,43.91-55.36,53C229.79,314.22,97.11,441.16,97.11,441.16L96,444.63l-4.63-9.25-13.88-6.94L79.75,425l-9.25-5.78h4.63L282.43,225.23Z" fill="#e6e6e6"/><path d="M315.75,189c2.31-12.73-1.16-33.55-1.16-33.55l11.57,4.63,37-89.08,19.67,4.63L362,136.91l60.16-75.19L445.31,75.6l-62.47,57.84L473.08,75.6,482.33,93l-81,55.53L426.81,145l6.94,15S349.25,197,340,207.44l-2.67,2.82L312.18,193.6Z" fill="#22b573"/><polygon points="312.83 192.76 282.44 225.23 285.97 231.51 294.65 234.54 299.38 240.8 304.41 241.98 337.33 210.26 334.8 205.41 327.24 202.9 325.44 194.26 315.31 195.67 312.83 192.76" fill="#6cdda7"/></svg>