<svg id="Ebene_1" data-name="Ebene 1" xmlns="http://www.w3.org/2000/svg" viewBox="0 0 512 512"><title>Fruit-33</title><path d="M236.5,214.8s-50.94-49.58-59.38-62.24-27.42-68.21-27.42-68.21,34.46,41.52,42.89,53.09S239,200,239,200,198.56,132.17,195,117.4,198.94,25,198.94,25s36.19,62.51,37.56,76.93l8.48,89.3s-1.23-69.61,7-86.84S286.46,46,286.46,46s4.07,49.78-5.63,67.15c-8.44,15.12-16.7,78.76-16.7,78.76s19.86-57.63,29.71-72,48.87-63.67,48.87-63.67-2.46,49.57-22.5,72.08C299.38,151.7,272,195.46,272,195.46s34.3-13.2,46.06-25.31,30.59-27.78,30.59-27.78-5.86,31.1-19,36.21-65.57,34.77-65.57,34.77Z" fill="#22b573"/><path d="M142.76,347.67C142.76,421.85,153,483,254.29,482s111.54-60.14,111.54-134.32,0-134.32-111.54-134.32S142.76,273.49,142.76,347.67Z" fill="#c9a985"/></svg>