<svg id="Ebene_1" data-name="Ebene 1" xmlns="http://www.w3.org/2000/svg" viewBox="0 0 512 512"><title>Fruit-24</title><path d="M166.82,233.15c-45.38,46.37-59.77,104-26.11,136.93s71.82,46,117.21-.38S406.52,199.65,361.6,150.86,212.21,186.78,166.82,233.15Z" fill="#2a0947"/><path d="M378.33,146.67C382.88,133,412,103,412,103L395.17,89.33s-30.79,26-36.17,34-30.63,12.29-45.07,13.91-24.18,1.25-42.46,13.46c-9.12,6.09-9.47,20-9.47,20s20.16-10.35,28.25-12.5,25.5,1,25.5,1-7.51,15.49-7.75,25.13,6.5,23.13,6.5,23.13,2.59-18.72,15.22-24.5c12-5.5,26.94-5.67,26.94-5.67s.67,32,6.33,37.67,14.67,8.33,14.67,8.33-5.33-25.67-1.33-34.67S373.79,160.33,378.33,146.67Z" fill="#22b573"/></svg>