<svg id="Ebene_1" data-name="Ebene 1" xmlns="http://www.w3.org/2000/svg" viewBox="0 0 512 512"><title>Fruit-17</title><path d="M258.17,334.83c6.5,1.67,6.5,17.86,12.83,17.86s13.37-16.36,12.68-25-7.68-4.93-6-16.47,11-24.63,22-26,29.67,28.53,38.67,21.33,2.67-16,5.33-26.67,20.67,4.2,22.67,0-3-15.63-10-26S332,225.23,325.67,228.53s-18.67,28.53-26,23.33-21.95-37.1-20.47-47.32,25-13.65,23.14-24-10-36.47-20.67-34-58.67,17.2-56,23.33,33,17.37,35,26-14.33,15.63-22.33,15.3-18-14.14-21.33-9.3-7.83,41.53,0,42,38.17-30.8,43.67-26.67S261,239,254,241.1s-25.29,13.73-37.12,10.73-5.06-21.3-16.95-21.07-31.38,21.07-20,30.43,14.16-4,23.66,1.47,4.83,13.83,12.67,12.67,16-18.93,22.83-12.8,5.17,18.18-1.17,20.65-25.33,5.13-25.33,11.1-20.73,22-11.83,23.55,11,24.07,17.67,20,4.54-34.07,10.67-35.33,18.67,6.7,19.33-4,9.17-20.13,16.33-14-6.1,13.72-12.39,20.63S251.67,333.17,258.17,334.83Z" fill="#c69c6d"/></svg>