<svg id="Ebene_1" data-name="Ebene 1" xmlns="http://www.w3.org/2000/svg" viewBox="0 0 512 512"><title>Fruit-18</title><path d="M253.17,197.33s1.33-20-5.33-27.67-8-8.83-8-8.83-6.37,3.32-8.67,2.41-1.33-4.45.25-6c1.35-1.32,7.75-3.37,8.08-5.75.18-1.31,6.88-5.79,7.67-4.83s-2.67,10.67-2.67,10.67,7.33,6.42,10,11.13c2.26,3.93,6.29,22.21,5.63,28.88S253.17,197.33,253.17,197.33Z" fill="#009245"/><path d="M331.58,249.53c0,108.14-58.38,97.76-75.59,77.41-14.91,19.6-70.38,39.28-75.59-77.41-3.4-76.12,61.07-81.36,75.59-57C268.18,171.89,331.58,165.67,331.58,249.53Z" fill="#006837"/></svg>