<svg id="Ebene_1" data-name="Ebene 1" xmlns="http://www.w3.org/2000/svg" viewBox="0 0 512 512"><title>Fruit-25</title><path d="M135.17,246.82c0,126.69,55,184.25,122.83,184.25s122.83-57.56,122.83-184.25S325.84,80.94,258,80.94,135.17,120.13,135.17,246.82Z" fill="#d9e021"/><path d="M258,80.94S352.33,129.73,349,257s-91,174-91,174,110.33-24,110.33-174S258,80.94,258,80.94Z" fill="#009245"/><path d="M258,431.06S167,383.3,170.33,256,258,80.94,258,80.94s-103,29.4-103,179.4S258,431.06,258,431.06Z" fill="#009245"/><path d="M258,431.06S317.67,382.33,313.54,256C309.39,128.72,258,80.94,258,80.94S281.43,115.15,291.46,256C302.11,405.62,258,431.06,258,431.06Z" fill="#009245"/><path d="M258,431.06s-29.33-46.73-26-174S258,80.94,258,80.94,210,107,210,257,258,431.06,258,431.06Z" fill="#009245"/><path d="M220.55,82.11c6.35,2.7,16.42-.42,30-9.28,5.51-3.6,11.42-1.59,14.46-.07A22.71,22.71,0,0,1,272.62,79c-15.25-3.6-19.1-2.84-21.13-.06a5.52,5.52,0,0,0-1,4.34l2.27.25c.22.92,2.16-.25,1.68.71s0-.13-.2,0c.28-.1,3.13-.92,16.47,2.25,1.46.35,5.92,1.41,8.33-2.76,1.07-1.85,1.82-4.92-.7-9A25.68,25.68,0,0,0,266.71,65c-4.37-1.84-11-3.1-17.77,1.33-8.6,5.62-20.08,11.63-26,8.3-2.32-1.3-3.55-4-3.76-8.28-.15-3,.78-3.7,1.34-4.1,4-2.88,12.88-.42,14.07,1.39a1.31,1.31,0,0,1-.14-.4l5.7-3.53c-1.15-5.32-13-8.15-19.82-4.74-4.71,2.36-7.34,7.46-7,13.65.32,6.45,2.42,10.81,6.22,12.94A10.23,10.23,0,0,0,220.55,82.11Z" fill="#009245"/></svg>