<svg id="Ebene_1" data-name="Ebene 1" xmlns="http://www.w3.org/2000/svg" viewBox="0 0 512 512"><title>Fruit-21</title><path d="M310.69,166.95l25.1-41.21a2.48,2.48,0,0,1,2.38-1.17l2.72.3a2.48,2.48,0,0,1,1.2.47l3.67,2.7a2.48,2.48,0,0,1,.33.29L351.5,134a2.48,2.48,0,0,1,0,3.37l-18,19.93-6.24,11.17-8.45,3.08Z" fill="#8cc63f"/><path d="M300.47,245.47c61-83,36-73,21.83-83.42s-13-27.42-73.94,55.58S156.13,368,170.28,378.42,239.51,328.47,300.47,245.47Z" fill="#f7931e"/><path d="M326.3,122.67,324,114.28a2.48,2.48,0,0,1,2.64-3.11h0a2.48,2.48,0,0,0,2.66-1.93l2-8.85a2.48,2.48,0,0,1,1.21-1.63l2.87-1.6a2.48,2.48,0,0,1,2.67.17l11.34,8.33a2.48,2.48,0,0,0,.7.36l2.39.78a2.48,2.48,0,0,1,1.65,1.82l.49,2.21a2.48,2.48,0,0,0,1.25,1.65l11.49,6.15a2.48,2.48,0,0,1,.41.28l10.52,8.75a2.48,2.48,0,0,1-1,4.31l-5.17,1.27a2.48,2.48,0,0,0-1.87,2.68l.42,3.73a2.48,2.48,0,0,1-2.4,2.75l-4,.11a2.48,2.48,0,0,1-1.25-.3l-6.62-3.62a2.48,2.48,0,0,0-3.1.59l-.91,1.1a2.48,2.48,0,0,1-2.77.74l-13.9-5.14a2.48,2.48,0,0,1-1.6-2l-.6-4.63a2.48,2.48,0,0,0-1.08-1.74l-5.12-3.43A2.48,2.48,0,0,1,326.3,122.67Z" fill="#009245"/></svg>