<svg id="Ebene_1" data-name="Ebene 1" xmlns="http://www.w3.org/2000/svg" viewBox="0 0 512 512"><title>Fruit-32</title><polygon points="125 270.5 177 256 166 232 210 242 193 201 218 194 170 170 206.5 159 208.03 119.9 234 119.9 277 156 271 61.17 297 76 303 37.5 359 80 420 66 385 129 454 133 410 161 461 181 403 181 359 194 380.83 265 304 266 380.83 310 279 328 313.17 353 258 347.68 264.07 374 145 364 125 270.5" fill="#006837"/><path d="M84.08,417.54c.33-.64.57-1.07.85-1.57l.83-1.42c.56-.93,1.12-1.85,1.7-2.75q1.73-2.7,3.58-5.28,3.69-5.17,7.75-10a193.3,193.3,0,0,1,17.38-18.09,226.94,226.94,0,0,1,40.29-29.35c1.78-1.06,3.61-2.05,5.43-3l2.73-1.49,2.77-1.42c1.84-1,3.69-1.9,5.56-2.78l5.52-2.67A149.29,149.29,0,0,0,199,326a112.57,112.57,0,0,0,9.18-7.15,90.42,90.42,0,0,0,8.14-8.2,101.37,101.37,0,0,0,12.88-19.45c3.67-7,6.93-14.45,10.42-21.87s7.18-14.83,11.37-22,8.65-13.91,13.09-20.8S273.1,213,277.78,206.3a478.62,478.62,0,0,1,30.09-38.75,167,167,0,0,1,17.44-17.36,76.75,76.75,0,0,1,10-7.22,35.8,35.8,0,0,1,11.53-4.62l.26,1.29a34.26,34.26,0,0,0-10.81,4.9,74.66,74.66,0,0,0-9.44,7.44,164.14,164.14,0,0,0-16.38,17.79c-5.09,6.28-9.87,12.82-14.45,19.49s-9,13.48-13.28,20.35-8.48,13.82-12.73,20.73l-6.29,10.43c-2.1,3.51-4.19,6.9-6.11,10.4-3.9,7-7.33,14.21-10.61,21.59s-6.43,14.93-10.12,22.41a110.31,110.31,0,0,1-13.6,21.43,99.72,99.72,0,0,1-8.85,9.29,111.39,111.39,0,0,1-9.92,8,158.93,158.93,0,0,1-21.69,12.77l-5.43,2.71c-1.8.87-3.56,1.8-5.32,2.74l-2.64,1.4L166.84,355c-1.74,1-3.48,1.95-5.18,3a232.29,232.29,0,0,0-19.87,13.2,210.05,210.05,0,0,0-18.34,15.16,182.5,182.5,0,0,0-16.32,17.17c-2.52,3-4.92,6.14-7.17,9.33-1.13,1.59-2.21,3.21-3.24,4.84-.52.81-1,1.63-1.5,2.45l-.7,1.22-.6,1.11Z" fill="#93278f"/></svg>