<svg id="Ebene_1" data-name="Ebene 1" xmlns="http://www.w3.org/2000/svg" viewBox="0 0 512 512"><title>Fruit-27</title><polygon points="426.34 256 431.44 278.65 432.3 302.44 419.74 322.52 402.7 338.76 405.04 368.8 382.15 379.97 365.52 396.47 347.55 412.46 321.89 412.48 300.72 420.8 279.37 433.7 255.54 432.49 231.77 433.12 208.71 427.36 188.9 413.21 165.73 408.4 144.05 398.56 124.72 384.45 108.19 367.04 92.05 348.82 91.55 322.42 71.16 304.61 74.16 279.41 78.25 256 68.73 231.84 87.21 211.96 95.01 191.11 106.14 171.87 120.39 154.95 121.74 124.38 151.51 123.79 166.69 105.37 187.63 95.55 207.05 78.04 233.24 90.85 255.54 87.7 278.82 82.84 302.49 84.14 320.76 102.44 346.65 101.21 366.02 114.84 375.01 139.64 399.91 147.4 404.39 172.21 429.52 185.16 439.96 207.38 429.46 233.63 426.34 256" fill="#f2f2f2"/><polygon points="349.56 190.18 364.24 197.13 377.46 207.11 382.14 223.44 382.57 240.74 399.88 252.6 394.72 271.15 395.49 288.32 395.34 306.07 382.83 321.35 376.98 337.62 373.51 356.02 361.24 369.68 349.99 384.1 335.63 395.29 321.89 412.48 304.47 412.52 288.6 421.09 265.02 409.39 231.77 408.56 222.02 418.77 222.02 418.77 202.49 423.05 190.39 410.15 179.79 397.4 162.14 392.41 160.46 372.65 153.04 358.81 148.12 343.7 145.96 327.76 130.16 313.47 144.37 295.49 141.86 278.33 146.79 261.54 146.84 242.25 166.5 232.31 175.68 217.65 184.43 201.65 196.67 188.13 215.43 185.32 227.39 169.37 244.17 163.85 261.91 169.43 278.23 158.03 294.5 174 312.99 157.05 330.04 160.63 339.04 178.46 349.56 190.18" fill="#fff"/><polygon points="95.01 191.11 157.5 188 186 162 205.5 123 120.39 154.95 106.14 171.87 95.01 191.11" fill="#22b573"/><polygon points="208.71 427.36 231.77 433.12 225.25 415.5 155.75 384 165.73 408.4 188.9 413.21 208.71 427.36" fill="#22b573"/><polygon points="265.02 409.39 273.15 433.7 311.29 427.86 331.23 432.14 311.71 406.06 289 415 265.02 409.39" fill="#22b573"/><polygon points="402.7 338.76 371.5 348.25 331.23 328.09 348.88 369.88 382.15 379.97 405.04 368.8 402.7 338.76" fill="#22b573"/></svg>