<svg id="Ebene_1" data-name="Ebene 1" xmlns="http://www.w3.org/2000/svg" viewBox="0 0 512 512"><title>Fruit-22</title><ellipse cx="279.2" cy="256" rx="162.2" ry="129.75" fill="#fcee21"/><polygon points="121.07 224.96 94.33 218.33 94.33 241 117 256 121.07 224.96" fill="#42210b"/><path d="M239,253c0,70.46,44.51,132.7,44.51,132.7s-2.81.05-4.31.05C189.62,385.75,117,327.66,117,256s72.62-129.75,162.2-129.75c1.44,0,4.15,0,4.15,0S239,182.49,239,253Z" fill="#f94b23"/><path d="M120.48,232.25s-22-42,0-60,50-24.67,50-24.67,16,26-3.33,45.33S120.48,232.25,120.48,232.25Z" fill="#009245"/></svg>