<svg id="Ebene_1" data-name="Ebene 1" xmlns="http://www.w3.org/2000/svg" viewBox="0 0 512 512"><title>Fruit-30</title><path d="M123.11,404.78s60.06-2.51,88.43-12.24,97.29-68.49,113.88-84,75.67-87.36,97.72-91.32,42.41,4.54,51-9.17-10.06-73.3-18.63-76.5-44.1,3.28-46.18-3.2,4.41-10,1.82-26.8-56.55-31.16-66.39-30-18.3,17.51-25.21,10.5S300,51.83,294.34,56.5,259.59,120.8,256,143.56s-84.85,85.5-98.35,121.49S116,333.4,111.5,361,123.11,404.78,123.11,404.78Z" fill="#8cc63f"/><path d="M409.21,128.91c2.08,6.47,37.6,0,46.18,3.2s27.22,62.79,18.63,76.5-28.95,5.21-51,9.17S341.89,293.6,325.3,309.1s-85.51,74.27-113.88,84-88.32,11.68-88.32,11.68S235.5,298.67,249,271.33s72.45-18.08,94.72-84.21S409.21,128.91,409.21,128.91Z" fill="#81a843"/><path d="M125.83,397.17c13.75-6.49,20.8-10.86,33.87-18.74s25.92-16.18,38.43-25,24.73-18,36.55-27.69q8.86-7.27,17.36-14.95c5.64-5.13,11.16-10.41,16.32-16,1.28-1.36,2.61-2.85,4-4.24s2.74-2.77,4.15-4.12c2.81-2.69,5.68-5.29,8.6-7.83,5.83-5.09,11.85-9.92,18-14.62,12.23-9.39,24.83-18.25,37.65-26.76s25.86-16.69,39.24-24.3c6.69-3.8,13.46-7.46,20.39-10.83,3.47-1.67,7-3.28,10.55-4.72a63.6,63.6,0,0,1,11-3.52l.16.82a62.76,62.76,0,0,0-10.8,3.7c-3.51,1.51-7,3.17-10.37,4.91-6.82,3.49-13.49,7.28-20.07,11.21q-19.73,11.82-38.54,25.09c-12.55,8.81-24.84,18-36.75,27.59-5.95,4.81-11.8,9.74-17.48,14.82-2.84,2.55-5.62,5.14-8.32,7.8q-2,2-4,4.05c-1.31,1.37-2.53,2.75-3.86,4.21-5.22,5.77-10.74,11.2-16.38,16.48S244.08,325,238.18,330q-17.7,14.94-36.49,28.47a504.13,504.13,0,0,1-78.58,46.34Z" fill="#e6e6e6"/><path d="M123.11,404.78c2.3-7.16.09-16.31,3.66-22.69s7.53-12.48,11.66-18.42c8.26-11.89,17.27-23.12,26.4-34.21s18.47-21.95,27.76-32.83,18.48-21.81,27.09-33.13c4.29-5.66,8.44-11.43,12.16-17.41.93-1.49,1.82-3,2.69-4.53s1.87-3.2,2.91-4.72a92.18,92.18,0,0,1,6.69-8.73,155.16,155.16,0,0,1,15.4-15.36c5.41-4.78,11-9.3,16.65-13.73,11.29-8.86,22.84-17.31,33.7-26.56a141.77,141.77,0,0,0,15.33-14.83,58.46,58.46,0,0,0,6.24-8.58,30.16,30.16,0,0,0,3.8-9.8l.83.13a31.13,31.13,0,0,1-3.65,10.22,59.71,59.71,0,0,1-6.14,8.93A143.39,143.39,0,0,1,311.19,174c-5.34,4.81-10.87,9.39-16.4,13.95s-11.08,9.08-16.54,13.68c-10.91,9.19-21.64,18.66-30.65,29.46a87.55,87.55,0,0,0-6.21,8.42c-1,1.45-1.82,2.94-2.67,4.45s-1.79,3.18-2.72,4.74c-3.75,6.23-7.89,12.17-12.15,18-8.56,11.6-17.65,22.72-26.77,33.78s-18.34,22-27.31,33.1S152,355.87,144,367.54c-4,5.83-7.82,11.79-11.22,17.92s-3.35,10.76-5.39,17.25Z" fill="#e6e6e6"/></svg>