<svg id="Ebene_1" data-name="Ebene 1" xmlns="http://www.w3.org/2000/svg" viewBox="0 0 512 512"><title>Fruit-16</title><polygon points="256.42 182.19 252.58 162.75 262.33 161.17 263.89 182.92 256 186 256.42 182.19" fill="#006837"/><path d="M259.25,182.25c21.5,1.5,24.4,22.1,25.58,28.58,2.77,15.17,10.17,16.83,15.5,33.5s-2,44.67-11.32,59.35-25.3,18.38-33,18.81c-11,.61-24.5-4.5-31.25-15.5-10.06-16.4-11.28-35-11.75-51-.49-16.5,8.67-36.58,16-43.25S237.75,180.75,259.25,182.25Z" fill="#023f20"/><polyline points="262.9 169.16 268.67 169.67 269.42 171.37 263.06 171.37" fill="#006837"/><path d="M268.3,170.22s-3,8.31,7.4,15.54a112.16,112.16,0,0,0,22.65,11.64s2.75-17-7.29-22.75-13.37-8.4-19.11-7.51S268.3,170.22,268.3,170.22Z" fill="#009245"/></svg>