<svg id="Ebene_1" data-name="Ebene 1" xmlns="http://www.w3.org/2000/svg" viewBox="0 0 512 512"><title>Fruit-29</title><path d="M264.5,283.5C238,297,172.1,374.84,153,379s-36.5,8-36.5,8-19.33-2.15-20.41-14.57S113.5,318.85,132,299.35,296.5,182.89,296.5,182.89l43.43,35.48S291,270,264.5,283.5Z" fill="#70e07b"/><polygon points="423.7 215.96 384.65 235.23 326.2 232.19 293.9 189.23 272.24 105.22 311.49 101.48 383.27 107.48 410.06 160.52 447.26 176.9 444.87 222.83 423.7 215.96" fill="#009245"/><polygon points="292 139.27 330 118 407.5 124.5 431.5 157 437 230.33 410 247.77 353.75 246 325 199.5 270.5 179.5 270.5 133.5 292 139.27" fill="#39b54a"/></svg>