<svg id="Ebene_1" data-name="Ebene 1" xmlns="http://www.w3.org/2000/svg" viewBox="0 0 512 512"><title>Fruit-13</title><path d="M239.66,276.58,243,261.48,275,232.18s9.09-7.59,12.54-11.94c1-1.26.67.77,3.5.75s2.91.51,5.7,2.55,3.63,7.54-1.87,3.7-7.45-2-7.45-2l-2.88,10.79L282,244.75Z" fill="#8cc63f"/><circle cx="268.27" cy="248.48" r="5.44" fill="#39b54a"/><circle cx="276.59" cy="240.1" r="5.44" fill="#39b54a"/><circle cx="251.69" cy="262.87" r="5.19" fill="#39b54a"/><circle cx="260" cy="255.88" r="5.6" fill="#39b54a"/><path d="M277.12,239.5c-2,3-18.43,17.68-21.35,19.37a125,125,0,0,1-13,5.76l5.44-7.93s-11.84,8.73-19.43,17.83c-3.33,4-10.83,11.22-10.83,11.22s7.56,3.31,19.33-3c15.69-8.41,39.54-27.45,43.17-32.47,6.86-9.5,6.33-10.53,7.5-17.2s0-7.46-.62-7.79a6.45,6.45,0,0,1-2.09-2.58l-6.64,6S279.15,236.54,277.12,239.5Z" fill="#009245"/></svg>