<svg id="Ebene_1" data-name="Ebene 1" xmlns="http://www.w3.org/2000/svg" viewBox="0 0 512 512"><title>Fruit-23</title><path d="M274.46,316.76c63.75-70.52,117.37-163.05,87.35-190.19S244.1,172.4,180.35,242.92,110.49,352.32,140.5,379.45,210.71,387.28,274.46,316.76Z" fill="#fcee21"/><path d="M266.25,144.25s-85,62.19-107.51,103.65-40.21,96.45-38,111.85c1.44,10,8,14.8,18.95,21.1,6,3.45,46.05-11.1,46.05-11.1s-35.3-80.87-4.5-95.19c25.25-11.74,29.75-64.81,65.49-90A191.84,191.84,0,0,1,289,162.25s-4.44-1.7-15.38,1.62A81.37,81.37,0,0,0,256,172.25a54.25,54.25,0,0,0,6-11.5A94.35,94.35,0,0,0,266.25,144.25Z" fill="#39b54a"/><path d="M181.25,391c11.82,0,52.13-26.41,52.13-26.41S267.75,323,277,318.25s19.76.14,19.76.14a17.12,17.12,0,0,0-14.26-10.7c-11.25-1.44-24,14.56-24,14.56l1.5-23.5s-10.5,28.48-20.25,44.62-24,13-40.73,17.67-28.67-2.44-39.09-4.74-31.39,10.07-31.39,10.07,8,15.27,14,20.06S169.43,391,181.25,391Z" fill="#009245"/></svg>