<svg id="Ebene_1" data-name="Ebene 1" xmlns="http://www.w3.org/2000/svg" viewBox="0 0 512 512"><title>Fruit-40</title><path d="M242.79,68c-3.78-5.17-8.7-17.08-3.1-29C247.91,21.53,274,11.72,319.33,9l.9,15c-50.7,3-63.65,14.62-66.85,21.26s1.41,13.56,1.61,13.85Z" fill="#009245"/><path d="M512,291c0,141.38-114.62,212-256,212S0,432.38,0,291,114.62,50,256,50,512,149.62,512,291Z" fill="#ff931e"/><path d="M243.69,50S65,127,65,290,256,503,256,503,116,442,116,287,243.69,50,243.69,50Z" fill="#fbb03b"/><path d="M257.31,503S444,455,444,292,245,50,245,50s150,84,150,239S257.31,503,257.31,503Z" fill="#fbb03b"/><path d="M257.31,503S279,448,279,285,245,50,245,50s-27,80-27,235S257.31,503,257.31,503Z" fill="#fbb03b"/></svg>