<svg id="Ebene_1" data-name="Ebene 1" xmlns="http://www.w3.org/2000/svg" viewBox="0 0 512 512"><title>Fruit-36</title><path d="M493,264.72c0,130.89-130,219.55-237,219.55-130.89,0-237-107.76-237-219.55,0-130.89,106.11-237,237-237S493,151.28,493,264.72Z" fill="#8cc63f"/><path d="M256,484.28,120.33,349,119,207s65.46-57,115.33-81.33c71.67-35,154.2-52.85,154.2-52.85a257,257,0,0,0-58.72-31.74C295,27.72,256,27.72,256,27.72c-130.89,0-237,106.11-237,237,0,111.79,106.11,219.55,237,219.55" fill="#688e2b"/><path d="M256,484.28c-78.74,0-148.51-39-191.61-94.41C59,383,47.59,354.88,55.67,305,65.18,246.25,119,207,119,207s14.52,115.68,42.67,160.67S256,484.28,256,484.28Z" fill="#c2fc65"/></svg>