<svg id="Ebene_1" data-name="Ebene 1" xmlns="http://www.w3.org/2000/svg" viewBox="0 0 512 512"><title>Fruit-37</title><circle cx="256" cy="256" r="243" fill="none"/><path d="M188.9,273.69c-16.2-10.07-18.23-72.34-10.69-98.5s21.2-34.4,42-41S260,89.07,280.76,81.35C297.9,75,332,68.92,352.6,76s66.55,9,81.66,20.85,13.65,26.13,11.12,42.72-5.94,54.89-21.53,74.18-48.15,22.3-73.62,40.06C337,263,315.36,287.4,284.91,290.34S205.1,283.76,188.9,273.69Z" fill="#009245"/><path d="M74,423.33c0-.75-.05-1.31-.07-1.94l0-1.83c0-1.21,0-2.41.05-3.61q.1-3.6.39-7.16.57-7.13,1.78-14.17A147,147,0,0,1,83.64,367,120.63,120.63,0,0,1,97,341.52a105.11,105.11,0,0,1,31.29-29.77c2-1.27,4.14-2.48,6.26-3.6,1.07-.56,2.12-1.13,3.21-1.65l3.17-1.54a225.87,225.87,0,0,0,23.57-13.1c15.24-9.7,29.62-20.91,43.73-32.59l21.25-17.62c7.17-5.84,14.43-11.64,22.15-17a124.31,124.31,0,0,1,24.81-13.8,63.65,63.65,0,0,0,11.47-6.11,108.85,108.85,0,0,0,10.56-8.11,209.12,209.12,0,0,0,19.13-19.28c6-6.85,11.85-14,17.66-21.1s11.67-14.29,18.12-21A88,88,0,0,1,363.73,126c3.73-2.78,7.92-5.22,12.64-6.11l.26,1.29c-4.34,1-8.23,3.49-11.71,6.33a85.87,85.87,0,0,0-9.7,9.54c-6,6.83-11.53,14.19-17,21.54s-10.91,14.83-16.66,22.1a194.57,194.57,0,0,1-18.61,20.91,95.51,95.51,0,0,1-11,9.09,66.88,66.88,0,0,1-12.65,7.17,116.61,116.61,0,0,0-23.07,13.36c-7.33,5.25-14.37,11-21.36,16.93l-20.94,17.94c-14,12-28.48,23.75-44.19,34a235.69,235.69,0,0,1-24.47,14l-3,1.51c-1,.48-1.95,1-2.91,1.53-1.93,1-3.81,2.16-5.65,3.33a95.71,95.71,0,0,0-10.55,7.74c-13.35,11.27-23.24,26.29-29.45,42.76a136.24,136.24,0,0,0-6.83,25.59c-.73,4.37-1.26,8.78-1.59,13.2-.17,2.21-.28,4.42-.33,6.61,0,1.1,0,2.2,0,3.28l0,1.62.06,1.51Z" fill="#c1272d"/><path d="M271.15,215.3a65.11,65.11,0,0,1-3.8-5.46q-1.75-2.78-3.25-5.67a69.06,69.06,0,0,1-4.94-12.06,47.75,47.75,0,0,1-2-12.81,37.7,37.7,0,0,1,.49-6.43,35.38,35.38,0,0,1,1.67-6.18,35.05,35.05,0,0,0-1,6.25,36.76,36.76,0,0,0,.14,6.29,45.88,45.88,0,0,0,3.16,12.06,65.94,65.94,0,0,0,5.82,11q1.7,2.6,3.6,5.06c1.26,1.61,2.62,3.25,4,4.64Z" fill="#c1272d"/><path d="M327.65,168.09a53.12,53.12,0,0,1-2.78-5.5q-1.23-2.77-2.18-5.64a51,51,0,0,1-2.49-11.79,38.89,38.89,0,0,1,0-6,31.07,31.07,0,0,1,1.1-5.9,26.31,26.31,0,0,1,2.32-5.48,27.8,27.8,0,0,1,3.46-4.76,27.48,27.48,0,0,0-2.9,5,25.38,25.38,0,0,0-1.67,5.49,29.52,29.52,0,0,0-.44,5.67,36.72,36.72,0,0,0,.61,5.64,47.92,47.92,0,0,0,3.5,10.76c.78,1.72,1.65,3.4,2.59,5a49,49,0,0,0,3,4.66Z" fill="#c1272d"/><path d="M339.05,152.68a158.3,158.3,0,0,0,16.43,3.1,122.59,122.59,0,0,0,16.73,1.2,55.2,55.2,0,0,0,16.5-2.24,23.47,23.47,0,0,0,7.38-3.78,15.27,15.27,0,0,0,4.91-6.71,15.58,15.58,0,0,1-4.5,7.18,24.4,24.4,0,0,1-7.35,4.48,57,57,0,0,1-16.83,3.56,125.66,125.66,0,0,1-17.2,0,162.26,162.26,0,0,1-17.14-2Z" fill="#c1272d"/><path d="M295.48,202.25A109.89,109.89,0,0,0,308,208.11a78.82,78.82,0,0,0,13.25,4,44.66,44.66,0,0,0,6.84.81,23.28,23.28,0,0,0,6.8-.67,14.31,14.31,0,0,0,6-3.13,14.94,14.94,0,0,0,3.85-5.76,14.46,14.46,0,0,1-9.49,10.08,24.81,24.81,0,0,1-7.14,1.35,46.8,46.8,0,0,1-7.24-.22,81.86,81.86,0,0,1-14.1-3,113.83,113.83,0,0,1-13.58-5Z" fill="#c1272d"/><path d="M213.35,260.29a100.84,100.84,0,0,1-5.15-10.51,112.08,112.08,0,0,1-4-10.89A79.58,79.58,0,0,1,200.38,216a53.23,53.23,0,0,1,1.14-11.56,43.14,43.14,0,0,1,4-10.85,38.47,38.47,0,0,1,6.92-9.17l2.08-2,2.25-1.77c.38-.29.74-.6,1.13-.87l1.2-.78,2.39-1.56-2.3,1.69-1.15.84c-.37.29-.72.62-1.07.93l-2.13,1.88-1.94,2.06a37.53,37.53,0,0,0-6.26,9.31,41.57,41.57,0,0,0-3.3,10.64,51,51,0,0,0-.48,11.12,76.5,76.5,0,0,0,4.88,21.72A108,108,0,0,0,212.18,248a96.84,96.84,0,0,0,5.41,9.67Z" fill="#c1272d"/><path d="M235.4,241.24a43.93,43.93,0,0,0,4.08,2.37c1.44.74,2.9,1.44,4.4,2.07a72,72,0,0,0,28.71,5.79,66.32,66.32,0,0,0,9.87-.78,71.58,71.58,0,0,0,9.72-2.15,83.89,83.89,0,0,0,18.32-8,84.51,84.51,0,0,1-17.93,9.22,73.17,73.17,0,0,1-9.77,2.81A68.51,68.51,0,0,1,272.68,254a73.67,73.67,0,0,1-20.45-1.42,75.11,75.11,0,0,1-10-2.79c-1.63-.57-3.24-1.22-4.83-1.92a47.69,47.69,0,0,1-4.78-2.4Z" fill="#c1272d"/></svg>